<?xml version="1.0" encoding="utf-8" standalone="no"?>
<!DOCTYPE svg PUBLIC "-//W3C//DTD SVG 1.1//EN"
  "http://www.w3.org/Graphics/SVG/1.1/DTD/svg11.dtd">
<svg xmlns:xlink="http://www.w3.org/1999/xlink" width="460.8pt" height="345.6pt" viewBox="0 0 460.8 345.6" xmlns="http://www.w3.org/2000/svg" version="1.1">
 <metadata>
  <rdf:RDF xmlns:dc="http://purl.org/dc/elements/1.1/" xmlns:cc="http://creativecommons.org/ns#" xmlns:rdf="http://www.w3.org/1999/02/22-rdf-syntax-ns#">
   <cc:Work>
    <dc:type rdf:resource="http://purl.org/dc/dcmitype/StillImage"/>
    <dc:date>2023-06-13T10:54:01.721941</dc:date>
    <dc:format>image/svg+xml</dc:format>
    <dc:creator>
     <cc:Agent>
      <dc:title>Matplotlib v3.7.1, https://matplotlib.org/</dc:title>
     </cc:Agent>
    </dc:creator>
   </cc:Work>
  </rdf:RDF>
 </metadata>
 <defs>
  <style type="text/css">*{stroke-linejoin: round; stroke-linecap: butt}</style>
 </defs>
 <g id="figure_1">
  <g id="patch_1">
   <path d="M 0 345.6 
L 460.8 345.6 
L 460.8 0 
L 0 0 
z
" style="fill: #ffffff"/>
  </g>
  <g id="axes_1">
   <g id="patch_2">
    <path d="M 57.6 307.584 
L 414.72 307.584 
L 414.72 41.472 
L 57.6 41.472 
z
" style="fill: #ffffff"/>
   </g>
   <g id="matplotlib.axis_1">
    <g id="xtick_1">
     <g id="line2d_1">
      <defs>
       <path id="mdb81333db9" d="M 0 0 
L 0 3.5 
" style="stroke: #000000; stroke-width: 0.8"/>
      </defs>
      <g>
       <use xlink:href="#mdb81333db9" x="73.832727" y="307.584" style="stroke: #000000; stroke-width: 0.8"/>
      </g>
     </g>
     <g id="text_1">
      <!-- 0 -->
      <g transform="translate(70.651477 322.182437) scale(0.1 -0.1)">
       <defs>
        <path id="DejaVuSans-30" d="M 2034 4250 
Q 1547 4250 1301 3770 
Q 1056 3291 1056 2328 
Q 1056 1369 1301 889 
Q 1547 409 2034 409 
Q 2525 409 2770 889 
Q 3016 1369 3016 2328 
Q 3016 3291 2770 3770 
Q 2525 4250 2034 4250 
z
M 2034 4750 
Q 2819 4750 3233 4129 
Q 3647 3509 3647 2328 
Q 3647 1150 3233 529 
Q 2819 -91 2034 -91 
Q 1250 -91 836 529 
Q 422 1150 422 2328 
Q 422 3509 836 4129 
Q 1250 4750 2034 4750 
z
" transform="scale(0.015625)"/>
       </defs>
       <use xlink:href="#DejaVuSans-30"/>
      </g>
     </g>
    </g>
    <g id="xtick_2">
     <g id="line2d_2">
      <g>
       <use xlink:href="#mdb81333db9" x="139.419504" y="307.584" style="stroke: #000000; stroke-width: 0.8"/>
      </g>
     </g>
     <g id="text_2">
      <!-- 20 -->
      <g transform="translate(133.057004 322.182437) scale(0.1 -0.1)">
       <defs>
        <path id="DejaVuSans-32" d="M 1228 531 
L 3431 531 
L 3431 0 
L 469 0 
L 469 531 
Q 828 903 1448 1529 
Q 2069 2156 2228 2338 
Q 2531 2678 2651 2914 
Q 2772 3150 2772 3378 
Q 2772 3750 2511 3984 
Q 2250 4219 1831 4219 
Q 1534 4219 1204 4116 
Q 875 4013 500 3803 
L 500 4441 
Q 881 4594 1212 4672 
Q 1544 4750 1819 4750 
Q 2544 4750 2975 4387 
Q 3406 4025 3406 3419 
Q 3406 3131 3298 2873 
Q 3191 2616 2906 2266 
Q 2828 2175 2409 1742 
Q 1991 1309 1228 531 
z
" transform="scale(0.015625)"/>
       </defs>
       <use xlink:href="#DejaVuSans-32"/>
       <use xlink:href="#DejaVuSans-30" x="63.623047"/>
      </g>
     </g>
    </g>
    <g id="xtick_3">
     <g id="line2d_3">
      <g>
       <use xlink:href="#mdb81333db9" x="205.006281" y="307.584" style="stroke: #000000; stroke-width: 0.8"/>
      </g>
     </g>
     <g id="text_3">
      <!-- 40 -->
      <g transform="translate(198.643781 322.182437) scale(0.1 -0.1)">
       <defs>
        <path id="DejaVuSans-34" d="M 2419 4116 
L 825 1625 
L 2419 1625 
L 2419 4116 
z
M 2253 4666 
L 3047 4666 
L 3047 1625 
L 3713 1625 
L 3713 1100 
L 3047 1100 
L 3047 0 
L 2419 0 
L 2419 1100 
L 313 1100 
L 313 1709 
L 2253 4666 
z
" transform="scale(0.015625)"/>
       </defs>
       <use xlink:href="#DejaVuSans-34"/>
       <use xlink:href="#DejaVuSans-30" x="63.623047"/>
      </g>
     </g>
    </g>
    <g id="xtick_4">
     <g id="line2d_4">
      <g>
       <use xlink:href="#mdb81333db9" x="270.593058" y="307.584" style="stroke: #000000; stroke-width: 0.8"/>
      </g>
     </g>
     <g id="text_4">
      <!-- 60 -->
      <g transform="translate(264.230558 322.182437) scale(0.1 -0.1)">
       <defs>
        <path id="DejaVuSans-36" d="M 2113 2584 
Q 1688 2584 1439 2293 
Q 1191 2003 1191 1497 
Q 1191 994 1439 701 
Q 1688 409 2113 409 
Q 2538 409 2786 701 
Q 3034 994 3034 1497 
Q 3034 2003 2786 2293 
Q 2538 2584 2113 2584 
z
M 3366 4563 
L 3366 3988 
Q 3128 4100 2886 4159 
Q 2644 4219 2406 4219 
Q 1781 4219 1451 3797 
Q 1122 3375 1075 2522 
Q 1259 2794 1537 2939 
Q 1816 3084 2150 3084 
Q 2853 3084 3261 2657 
Q 3669 2231 3669 1497 
Q 3669 778 3244 343 
Q 2819 -91 2113 -91 
Q 1303 -91 875 529 
Q 447 1150 447 2328 
Q 447 3434 972 4092 
Q 1497 4750 2381 4750 
Q 2619 4750 2861 4703 
Q 3103 4656 3366 4563 
z
" transform="scale(0.015625)"/>
       </defs>
       <use xlink:href="#DejaVuSans-36"/>
       <use xlink:href="#DejaVuSans-30" x="63.623047"/>
      </g>
     </g>
    </g>
    <g id="xtick_5">
     <g id="line2d_5">
      <g>
       <use xlink:href="#mdb81333db9" x="336.179835" y="307.584" style="stroke: #000000; stroke-width: 0.8"/>
      </g>
     </g>
     <g id="text_5">
      <!-- 80 -->
      <g transform="translate(329.817335 322.182437) scale(0.1 -0.1)">
       <defs>
        <path id="DejaVuSans-38" d="M 2034 2216 
Q 1584 2216 1326 1975 
Q 1069 1734 1069 1313 
Q 1069 891 1326 650 
Q 1584 409 2034 409 
Q 2484 409 2743 651 
Q 3003 894 3003 1313 
Q 3003 1734 2745 1975 
Q 2488 2216 2034 2216 
z
M 1403 2484 
Q 997 2584 770 2862 
Q 544 3141 544 3541 
Q 544 4100 942 4425 
Q 1341 4750 2034 4750 
Q 2731 4750 3128 4425 
Q 3525 4100 3525 3541 
Q 3525 3141 3298 2862 
Q 3072 2584 2669 2484 
Q 3125 2378 3379 2068 
Q 3634 1759 3634 1313 
Q 3634 634 3220 271 
Q 2806 -91 2034 -91 
Q 1263 -91 848 271 
Q 434 634 434 1313 
Q 434 1759 690 2068 
Q 947 2378 1403 2484 
z
M 1172 3481 
Q 1172 3119 1398 2916 
Q 1625 2713 2034 2713 
Q 2441 2713 2670 2916 
Q 2900 3119 2900 3481 
Q 2900 3844 2670 4047 
Q 2441 4250 2034 4250 
Q 1625 4250 1398 4047 
Q 1172 3844 1172 3481 
z
" transform="scale(0.015625)"/>
       </defs>
       <use xlink:href="#DejaVuSans-38"/>
       <use xlink:href="#DejaVuSans-30" x="63.623047"/>
      </g>
     </g>
    </g>
    <g id="xtick_6">
     <g id="line2d_6">
      <g>
       <use xlink:href="#mdb81333db9" x="401.766612" y="307.584" style="stroke: #000000; stroke-width: 0.8"/>
      </g>
     </g>
     <g id="text_6">
      <!-- 100 -->
      <g transform="translate(392.222862 322.182437) scale(0.1 -0.1)">
       <defs>
        <path id="DejaVuSans-31" d="M 794 531 
L 1825 531 
L 1825 4091 
L 703 3866 
L 703 4441 
L 1819 4666 
L 2450 4666 
L 2450 531 
L 3481 531 
L 3481 0 
L 794 0 
L 794 531 
z
" transform="scale(0.015625)"/>
       </defs>
       <use xlink:href="#DejaVuSans-31"/>
       <use xlink:href="#DejaVuSans-30" x="63.623047"/>
       <use xlink:href="#DejaVuSans-30" x="127.246094"/>
      </g>
     </g>
    </g>
    <g id="text_7">
     <!-- Train loss vs. epoches -->
     <g transform="translate(181.67875 335.860562) scale(0.1 -0.1)">
      <defs>
       <path id="DejaVuSans-54" d="M -19 4666 
L 3928 4666 
L 3928 4134 
L 2272 4134 
L 2272 0 
L 1638 0 
L 1638 4134 
L -19 4134 
L -19 4666 
z
" transform="scale(0.015625)"/>
       <path id="DejaVuSans-72" d="M 2631 2963 
Q 2534 3019 2420 3045 
Q 2306 3072 2169 3072 
Q 1681 3072 1420 2755 
Q 1159 2438 1159 1844 
L 1159 0 
L 581 0 
L 581 3500 
L 1159 3500 
L 1159 2956 
Q 1341 3275 1631 3429 
Q 1922 3584 2338 3584 
Q 2397 3584 2469 3576 
Q 2541 3569 2628 3553 
L 2631 2963 
z
" transform="scale(0.015625)"/>
       <path id="DejaVuSans-61" d="M 2194 1759 
Q 1497 1759 1228 1600 
Q 959 1441 959 1056 
Q 959 750 1161 570 
Q 1363 391 1709 391 
Q 2188 391 2477 730 
Q 2766 1069 2766 1631 
L 2766 1759 
L 2194 1759 
z
M 3341 1997 
L 3341 0 
L 2766 0 
L 2766 531 
Q 2569 213 2275 61 
Q 1981 -91 1556 -91 
Q 1019 -91 701 211 
Q 384 513 384 1019 
Q 384 1609 779 1909 
Q 1175 2209 1959 2209 
L 2766 2209 
L 2766 2266 
Q 2766 2663 2505 2880 
Q 2244 3097 1772 3097 
Q 1472 3097 1187 3025 
Q 903 2953 641 2809 
L 641 3341 
Q 956 3463 1253 3523 
Q 1550 3584 1831 3584 
Q 2591 3584 2966 3190 
Q 3341 2797 3341 1997 
z
" transform="scale(0.015625)"/>
       <path id="DejaVuSans-69" d="M 603 3500 
L 1178 3500 
L 1178 0 
L 603 0 
L 603 3500 
z
M 603 4863 
L 1178 4863 
L 1178 4134 
L 603 4134 
L 603 4863 
z
" transform="scale(0.015625)"/>
       <path id="DejaVuSans-6e" d="M 3513 2113 
L 3513 0 
L 2938 0 
L 2938 2094 
Q 2938 2591 2744 2837 
Q 2550 3084 2163 3084 
Q 1697 3084 1428 2787 
Q 1159 2491 1159 1978 
L 1159 0 
L 581 0 
L 581 3500 
L 1159 3500 
L 1159 2956 
Q 1366 3272 1645 3428 
Q 1925 3584 2291 3584 
Q 2894 3584 3203 3211 
Q 3513 2838 3513 2113 
z
" transform="scale(0.015625)"/>
       <path id="DejaVuSans-20" transform="scale(0.015625)"/>
       <path id="DejaVuSans-6c" d="M 603 4863 
L 1178 4863 
L 1178 0 
L 603 0 
L 603 4863 
z
" transform="scale(0.015625)"/>
       <path id="DejaVuSans-6f" d="M 1959 3097 
Q 1497 3097 1228 2736 
Q 959 2375 959 1747 
Q 959 1119 1226 758 
Q 1494 397 1959 397 
Q 2419 397 2687 759 
Q 2956 1122 2956 1747 
Q 2956 2369 2687 2733 
Q 2419 3097 1959 3097 
z
M 1959 3584 
Q 2709 3584 3137 3096 
Q 3566 2609 3566 1747 
Q 3566 888 3137 398 
Q 2709 -91 1959 -91 
Q 1206 -91 779 398 
Q 353 888 353 1747 
Q 353 2609 779 3096 
Q 1206 3584 1959 3584 
z
" transform="scale(0.015625)"/>
       <path id="DejaVuSans-73" d="M 2834 3397 
L 2834 2853 
Q 2591 2978 2328 3040 
Q 2066 3103 1784 3103 
Q 1356 3103 1142 2972 
Q 928 2841 928 2578 
Q 928 2378 1081 2264 
Q 1234 2150 1697 2047 
L 1894 2003 
Q 2506 1872 2764 1633 
Q 3022 1394 3022 966 
Q 3022 478 2636 193 
Q 2250 -91 1575 -91 
Q 1294 -91 989 -36 
Q 684 19 347 128 
L 347 722 
Q 666 556 975 473 
Q 1284 391 1588 391 
Q 1994 391 2212 530 
Q 2431 669 2431 922 
Q 2431 1156 2273 1281 
Q 2116 1406 1581 1522 
L 1381 1569 
Q 847 1681 609 1914 
Q 372 2147 372 2553 
Q 372 3047 722 3315 
Q 1072 3584 1716 3584 
Q 2034 3584 2315 3537 
Q 2597 3491 2834 3397 
z
" transform="scale(0.015625)"/>
       <path id="DejaVuSans-76" d="M 191 3500 
L 800 3500 
L 1894 563 
L 2988 3500 
L 3597 3500 
L 2284 0 
L 1503 0 
L 191 3500 
z
" transform="scale(0.015625)"/>
       <path id="DejaVuSans-2e" d="M 684 794 
L 1344 794 
L 1344 0 
L 684 0 
L 684 794 
z
" transform="scale(0.015625)"/>
       <path id="DejaVuSans-65" d="M 3597 1894 
L 3597 1613 
L 953 1613 
Q 991 1019 1311 708 
Q 1631 397 2203 397 
Q 2534 397 2845 478 
Q 3156 559 3463 722 
L 3463 178 
Q 3153 47 2828 -22 
Q 2503 -91 2169 -91 
Q 1331 -91 842 396 
Q 353 884 353 1716 
Q 353 2575 817 3079 
Q 1281 3584 2069 3584 
Q 2775 3584 3186 3129 
Q 3597 2675 3597 1894 
z
M 3022 2063 
Q 3016 2534 2758 2815 
Q 2500 3097 2075 3097 
Q 1594 3097 1305 2825 
Q 1016 2553 972 2059 
L 3022 2063 
z
" transform="scale(0.015625)"/>
       <path id="DejaVuSans-70" d="M 1159 525 
L 1159 -1331 
L 581 -1331 
L 581 3500 
L 1159 3500 
L 1159 2969 
Q 1341 3281 1617 3432 
Q 1894 3584 2278 3584 
Q 2916 3584 3314 3078 
Q 3713 2572 3713 1747 
Q 3713 922 3314 415 
Q 2916 -91 2278 -91 
Q 1894 -91 1617 61 
Q 1341 213 1159 525 
z
M 3116 1747 
Q 3116 2381 2855 2742 
Q 2594 3103 2138 3103 
Q 1681 3103 1420 2742 
Q 1159 2381 1159 1747 
Q 1159 1113 1420 752 
Q 1681 391 2138 391 
Q 2594 391 2855 752 
Q 3116 1113 3116 1747 
z
" transform="scale(0.015625)"/>
       <path id="DejaVuSans-63" d="M 3122 3366 
L 3122 2828 
Q 2878 2963 2633 3030 
Q 2388 3097 2138 3097 
Q 1578 3097 1268 2742 
Q 959 2388 959 1747 
Q 959 1106 1268 751 
Q 1578 397 2138 397 
Q 2388 397 2633 464 
Q 2878 531 3122 666 
L 3122 134 
Q 2881 22 2623 -34 
Q 2366 -91 2075 -91 
Q 1284 -91 818 406 
Q 353 903 353 1747 
Q 353 2603 823 3093 
Q 1294 3584 2113 3584 
Q 2378 3584 2631 3529 
Q 2884 3475 3122 3366 
z
" transform="scale(0.015625)"/>
       <path id="DejaVuSans-68" d="M 3513 2113 
L 3513 0 
L 2938 0 
L 2938 2094 
Q 2938 2591 2744 2837 
Q 2550 3084 2163 3084 
Q 1697 3084 1428 2787 
Q 1159 2491 1159 1978 
L 1159 0 
L 581 0 
L 581 4863 
L 1159 4863 
L 1159 2956 
Q 1366 3272 1645 3428 
Q 1925 3584 2291 3584 
Q 2894 3584 3203 3211 
Q 3513 2838 3513 2113 
z
" transform="scale(0.015625)"/>
      </defs>
      <use xlink:href="#DejaVuSans-54"/>
      <use xlink:href="#DejaVuSans-72" x="46.333984"/>
      <use xlink:href="#DejaVuSans-61" x="87.447266"/>
      <use xlink:href="#DejaVuSans-69" x="148.726562"/>
      <use xlink:href="#DejaVuSans-6e" x="176.509766"/>
      <use xlink:href="#DejaVuSans-20" x="239.888672"/>
      <use xlink:href="#DejaVuSans-6c" x="271.675781"/>
      <use xlink:href="#DejaVuSans-6f" x="299.458984"/>
      <use xlink:href="#DejaVuSans-73" x="360.640625"/>
      <use xlink:href="#DejaVuSans-73" x="412.740234"/>
      <use xlink:href="#DejaVuSans-20" x="464.839844"/>
      <use xlink:href="#DejaVuSans-76" x="496.626953"/>
      <use xlink:href="#DejaVuSans-73" x="555.806641"/>
      <use xlink:href="#DejaVuSans-2e" x="607.90625"/>
      <use xlink:href="#DejaVuSans-20" x="639.693359"/>
      <use xlink:href="#DejaVuSans-65" x="671.480469"/>
      <use xlink:href="#DejaVuSans-70" x="733.003906"/>
      <use xlink:href="#DejaVuSans-6f" x="796.480469"/>
      <use xlink:href="#DejaVuSans-63" x="857.662109"/>
      <use xlink:href="#DejaVuSans-68" x="912.642578"/>
      <use xlink:href="#DejaVuSans-65" x="976.021484"/>
      <use xlink:href="#DejaVuSans-73" x="1037.544922"/>
     </g>
    </g>
   </g>
   <g id="matplotlib.axis_2">
    <g id="ytick_1">
     <g id="line2d_7">
      <defs>
       <path id="m0fbb367dd7" d="M 0 0 
L -3.5 0 
" style="stroke: #000000; stroke-width: 0.8"/>
      </defs>
      <g>
       <use xlink:href="#m0fbb367dd7" x="57.6" y="281.985586" style="stroke: #000000; stroke-width: 0.8"/>
      </g>
     </g>
     <g id="text_8">
      <!-- 7.5 -->
      <g transform="translate(34.696875 285.784805) scale(0.1 -0.1)">
       <defs>
        <path id="DejaVuSans-37" d="M 525 4666 
L 3525 4666 
L 3525 4397 
L 1831 0 
L 1172 0 
L 2766 4134 
L 525 4134 
L 525 4666 
z
" transform="scale(0.015625)"/>
        <path id="DejaVuSans-35" d="M 691 4666 
L 3169 4666 
L 3169 4134 
L 1269 4134 
L 1269 2991 
Q 1406 3038 1543 3061 
Q 1681 3084 1819 3084 
Q 2600 3084 3056 2656 
Q 3513 2228 3513 1497 
Q 3513 744 3044 326 
Q 2575 -91 1722 -91 
Q 1428 -91 1123 -41 
Q 819 9 494 109 
L 494 744 
Q 775 591 1075 516 
Q 1375 441 1709 441 
Q 2250 441 2565 725 
Q 2881 1009 2881 1497 
Q 2881 1984 2565 2268 
Q 2250 2553 1709 2553 
Q 1456 2553 1204 2497 
Q 953 2441 691 2322 
L 691 4666 
z
" transform="scale(0.015625)"/>
       </defs>
       <use xlink:href="#DejaVuSans-37"/>
       <use xlink:href="#DejaVuSans-2e" x="63.623047"/>
       <use xlink:href="#DejaVuSans-35" x="95.410156"/>
      </g>
     </g>
    </g>
    <g id="ytick_2">
     <g id="line2d_8">
      <g>
       <use xlink:href="#m0fbb367dd7" x="57.6" y="236.483741" style="stroke: #000000; stroke-width: 0.8"/>
      </g>
     </g>
     <g id="text_9">
      <!-- 8.0 -->
      <g transform="translate(34.696875 240.28296) scale(0.1 -0.1)">
       <use xlink:href="#DejaVuSans-38"/>
       <use xlink:href="#DejaVuSans-2e" x="63.623047"/>
       <use xlink:href="#DejaVuSans-30" x="95.410156"/>
      </g>
     </g>
    </g>
    <g id="ytick_3">
     <g id="line2d_9">
      <g>
       <use xlink:href="#m0fbb367dd7" x="57.6" y="190.981897" style="stroke: #000000; stroke-width: 0.8"/>
      </g>
     </g>
     <g id="text_10">
      <!-- 8.5 -->
      <g transform="translate(34.696875 194.781115) scale(0.1 -0.1)">
       <use xlink:href="#DejaVuSans-38"/>
       <use xlink:href="#DejaVuSans-2e" x="63.623047"/>
       <use xlink:href="#DejaVuSans-35" x="95.410156"/>
      </g>
     </g>
    </g>
    <g id="ytick_4">
     <g id="line2d_10">
      <g>
       <use xlink:href="#m0fbb367dd7" x="57.6" y="145.480052" style="stroke: #000000; stroke-width: 0.8"/>
      </g>
     </g>
     <g id="text_11">
      <!-- 9.0 -->
      <g transform="translate(34.696875 149.279271) scale(0.1 -0.1)">
       <defs>
        <path id="DejaVuSans-39" d="M 703 97 
L 703 672 
Q 941 559 1184 500 
Q 1428 441 1663 441 
Q 2288 441 2617 861 
Q 2947 1281 2994 2138 
Q 2813 1869 2534 1725 
Q 2256 1581 1919 1581 
Q 1219 1581 811 2004 
Q 403 2428 403 3163 
Q 403 3881 828 4315 
Q 1253 4750 1959 4750 
Q 2769 4750 3195 4129 
Q 3622 3509 3622 2328 
Q 3622 1225 3098 567 
Q 2575 -91 1691 -91 
Q 1453 -91 1209 -44 
Q 966 3 703 97 
z
M 1959 2075 
Q 2384 2075 2632 2365 
Q 2881 2656 2881 3163 
Q 2881 3666 2632 3958 
Q 2384 4250 1959 4250 
Q 1534 4250 1286 3958 
Q 1038 3666 1038 3163 
Q 1038 2656 1286 2365 
Q 1534 2075 1959 2075 
z
" transform="scale(0.015625)"/>
       </defs>
       <use xlink:href="#DejaVuSans-39"/>
       <use xlink:href="#DejaVuSans-2e" x="63.623047"/>
       <use xlink:href="#DejaVuSans-30" x="95.410156"/>
      </g>
     </g>
    </g>
    <g id="ytick_5">
     <g id="line2d_11">
      <g>
       <use xlink:href="#m0fbb367dd7" x="57.6" y="99.978207" style="stroke: #000000; stroke-width: 0.8"/>
      </g>
     </g>
     <g id="text_12">
      <!-- 9.5 -->
      <g transform="translate(34.696875 103.777426) scale(0.1 -0.1)">
       <use xlink:href="#DejaVuSans-39"/>
       <use xlink:href="#DejaVuSans-2e" x="63.623047"/>
       <use xlink:href="#DejaVuSans-35" x="95.410156"/>
      </g>
     </g>
    </g>
    <g id="ytick_6">
     <g id="line2d_12">
      <g>
       <use xlink:href="#m0fbb367dd7" x="57.6" y="54.476362" style="stroke: #000000; stroke-width: 0.8"/>
      </g>
     </g>
     <g id="text_13">
      <!-- 10.0 -->
      <g transform="translate(28.334375 58.275581) scale(0.1 -0.1)">
       <use xlink:href="#DejaVuSans-31"/>
       <use xlink:href="#DejaVuSans-30" x="63.623047"/>
       <use xlink:href="#DejaVuSans-2e" x="127.246094"/>
       <use xlink:href="#DejaVuSans-30" x="159.033203"/>
      </g>
     </g>
    </g>
    <g id="text_14">
     <!-- Train loss -->
     <g transform="translate(22.254687 197.768625) rotate(-90) scale(0.1 -0.1)">
      <use xlink:href="#DejaVuSans-54"/>
      <use xlink:href="#DejaVuSans-72" x="46.333984"/>
      <use xlink:href="#DejaVuSans-61" x="87.447266"/>
      <use xlink:href="#DejaVuSans-69" x="148.726562"/>
      <use xlink:href="#DejaVuSans-6e" x="176.509766"/>
      <use xlink:href="#DejaVuSans-20" x="239.888672"/>
      <use xlink:href="#DejaVuSans-6c" x="271.675781"/>
      <use xlink:href="#DejaVuSans-6f" x="299.458984"/>
      <use xlink:href="#DejaVuSans-73" x="360.640625"/>
      <use xlink:href="#DejaVuSans-73" x="412.740234"/>
     </g>
    </g>
   </g>
   <g id="line2d_13">
    <path d="M 73.832727 53.568 
L 77.112066 209.765938 
L 80.391405 226.2247 
L 83.670744 233.684137 
L 86.950083 239.947707 
L 90.229421 246.735354 
L 93.50876 252.853452 
L 96.788099 253.719882 
L 100.067438 268.127615 
L 103.346777 265.302603 
L 106.626116 262.556979 
L 109.905455 258.386585 
L 113.184793 268.05362 
L 116.464132 265.619676 
L 119.743471 260.081186 
L 123.02281 266.959907 
L 126.302149 263.720721 
L 129.581488 272.523865 
L 132.860826 271.469278 
L 136.140165 269.097825 
L 139.419504 268.072795 
L 142.698843 268.645531 
L 145.978182 275.479171 
L 149.257521 272.716793 
L 152.53686 274.435358 
L 155.816198 277.212356 
L 159.095537 278.533276 
L 162.374876 279.7831 
L 165.654215 281.276221 
L 168.933554 278.340337 
L 172.212893 279.326412 
L 175.492231 282.115101 
L 178.77157 282.078457 
L 182.050909 285.348314 
L 185.330248 281.500518 
L 188.609587 281.605566 
L 191.888926 282.994689 
L 195.168264 285.189829 
L 198.447603 283.269472 
L 201.726942 285.99567 
L 205.006281 284.507368 
L 208.28562 287.13336 
L 211.564959 285.595511 
L 214.844298 286.022866 
L 218.123636 285.460874 
L 221.402975 284.720521 
L 224.682314 282.417457 
L 227.961653 287.341719 
L 231.240992 289.498862 
L 234.520331 287.41235 
L 237.799669 286.669484 
L 241.079008 285.838798 
L 244.358347 287.525024 
L 247.637686 285.689871 
L 250.917025 287.189984 
L 254.196364 287.994532 
L 257.475702 288.215737 
L 260.755041 290.383881 
L 264.03438 288.74957 
L 267.313719 287.972707 
L 270.593058 287.386903 
L 273.872397 288.254503 
L 277.151736 286.758737 
L 280.431074 288.629034 
L 283.710413 289.928135 
L 286.989752 286.37829 
L 290.269091 292.614663 
L 293.54843 293.138365 
L 296.827769 292.286152 
L 300.107107 287.584088 
L 303.386446 285.351924 
L 306.665785 291.718241 
L 309.945124 289.843761 
L 313.224463 289.030162 
L 316.503802 288.188259 
L 319.78314 287.938067 
L 323.062479 289.925427 
L 326.341818 289.711825 
L 329.621157 288.993807 
L 332.900496 289.141507 
L 336.179835 288.558656 
L 339.459174 290.075659 
L 342.738512 288.937755 
L 346.017851 289.091951 
L 349.29719 290.495037 
L 352.576529 290.499125 
L 355.855868 290.33996 
L 359.135207 288.543178 
L 362.414545 292.830469 
L 365.693884 292.887319 
L 368.973223 291.078093 
L 372.252562 290.643297 
L 375.531901 290.892725 
L 378.81124 291.568746 
L 382.090579 290.880006 
L 385.369917 295.488 
L 388.649256 295.245856 
L 391.928595 292.976489 
L 395.207934 294.844992 
L 398.487273 293.133679 
" clip-path="url(#pe9844ca493)" style="fill: none; stroke: #1f77b4; stroke-width: 1.5; stroke-linecap: square"/>
    <defs>
     <path id="maacc9d2b1a" d="M 0 3 
C 0.795609 3 1.55874 2.683901 2.12132 2.12132 
C 2.683901 1.55874 3 0.795609 3 0 
C 3 -0.795609 2.683901 -1.55874 2.12132 -2.12132 
C 1.55874 -2.683901 0.795609 -3 0 -3 
C -0.795609 -3 -1.55874 -2.683901 -2.12132 -2.12132 
C -2.683901 -1.55874 -3 -0.795609 -3 0 
C -3 0.795609 -2.683901 1.55874 -2.12132 2.12132 
C -1.55874 2.683901 -0.795609 3 0 3 
z
" style="stroke: #1f77b4"/>
    </defs>
    <g clip-path="url(#pe9844ca493)">
     <use xlink:href="#maacc9d2b1a" x="73.832727" y="53.568" style="fill: #1f77b4; stroke: #1f77b4"/>
     <use xlink:href="#maacc9d2b1a" x="77.112066" y="209.765938" style="fill: #1f77b4; stroke: #1f77b4"/>
     <use xlink:href="#maacc9d2b1a" x="80.391405" y="226.2247" style="fill: #1f77b4; stroke: #1f77b4"/>
     <use xlink:href="#maacc9d2b1a" x="83.670744" y="233.684137" style="fill: #1f77b4; stroke: #1f77b4"/>
     <use xlink:href="#maacc9d2b1a" x="86.950083" y="239.947707" style="fill: #1f77b4; stroke: #1f77b4"/>
     <use xlink:href="#maacc9d2b1a" x="90.229421" y="246.735354" style="fill: #1f77b4; stroke: #1f77b4"/>
     <use xlink:href="#maacc9d2b1a" x="93.50876" y="252.853452" style="fill: #1f77b4; stroke: #1f77b4"/>
     <use xlink:href="#maacc9d2b1a" x="96.788099" y="253.719882" style="fill: #1f77b4; stroke: #1f77b4"/>
     <use xlink:href="#maacc9d2b1a" x="100.067438" y="268.127615" style="fill: #1f77b4; stroke: #1f77b4"/>
     <use xlink:href="#maacc9d2b1a" x="103.346777" y="265.302603" style="fill: #1f77b4; stroke: #1f77b4"/>
     <use xlink:href="#maacc9d2b1a" x="106.626116" y="262.556979" style="fill: #1f77b4; stroke: #1f77b4"/>
     <use xlink:href="#maacc9d2b1a" x="109.905455" y="258.386585" style="fill: #1f77b4; stroke: #1f77b4"/>
     <use xlink:href="#maacc9d2b1a" x="113.184793" y="268.05362" style="fill: #1f77b4; stroke: #1f77b4"/>
     <use xlink:href="#maacc9d2b1a" x="116.464132" y="265.619676" style="fill: #1f77b4; stroke: #1f77b4"/>
     <use xlink:href="#maacc9d2b1a" x="119.743471" y="260.081186" style="fill: #1f77b4; stroke: #1f77b4"/>
     <use xlink:href="#maacc9d2b1a" x="123.02281" y="266.959907" style="fill: #1f77b4; stroke: #1f77b4"/>
     <use xlink:href="#maacc9d2b1a" x="126.302149" y="263.720721" style="fill: #1f77b4; stroke: #1f77b4"/>
     <use xlink:href="#maacc9d2b1a" x="129.581488" y="272.523865" style="fill: #1f77b4; stroke: #1f77b4"/>
     <use xlink:href="#maacc9d2b1a" x="132.860826" y="271.469278" style="fill: #1f77b4; stroke: #1f77b4"/>
     <use xlink:href="#maacc9d2b1a" x="136.140165" y="269.097825" style="fill: #1f77b4; stroke: #1f77b4"/>
     <use xlink:href="#maacc9d2b1a" x="139.419504" y="268.072795" style="fill: #1f77b4; stroke: #1f77b4"/>
     <use xlink:href="#maacc9d2b1a" x="142.698843" y="268.645531" style="fill: #1f77b4; stroke: #1f77b4"/>
     <use xlink:href="#maacc9d2b1a" x="145.978182" y="275.479171" style="fill: #1f77b4; stroke: #1f77b4"/>
     <use xlink:href="#maacc9d2b1a" x="149.257521" y="272.716793" style="fill: #1f77b4; stroke: #1f77b4"/>
     <use xlink:href="#maacc9d2b1a" x="152.53686" y="274.435358" style="fill: #1f77b4; stroke: #1f77b4"/>
     <use xlink:href="#maacc9d2b1a" x="155.816198" y="277.212356" style="fill: #1f77b4; stroke: #1f77b4"/>
     <use xlink:href="#maacc9d2b1a" x="159.095537" y="278.533276" style="fill: #1f77b4; stroke: #1f77b4"/>
     <use xlink:href="#maacc9d2b1a" x="162.374876" y="279.7831" style="fill: #1f77b4; stroke: #1f77b4"/>
     <use xlink:href="#maacc9d2b1a" x="165.654215" y="281.276221" style="fill: #1f77b4; stroke: #1f77b4"/>
     <use xlink:href="#maacc9d2b1a" x="168.933554" y="278.340337" style="fill: #1f77b4; stroke: #1f77b4"/>
     <use xlink:href="#maacc9d2b1a" x="172.212893" y="279.326412" style="fill: #1f77b4; stroke: #1f77b4"/>
     <use xlink:href="#maacc9d2b1a" x="175.492231" y="282.115101" style="fill: #1f77b4; stroke: #1f77b4"/>
     <use xlink:href="#maacc9d2b1a" x="178.77157" y="282.078457" style="fill: #1f77b4; stroke: #1f77b4"/>
     <use xlink:href="#maacc9d2b1a" x="182.050909" y="285.348314" style="fill: #1f77b4; stroke: #1f77b4"/>
     <use xlink:href="#maacc9d2b1a" x="185.330248" y="281.500518" style="fill: #1f77b4; stroke: #1f77b4"/>
     <use xlink:href="#maacc9d2b1a" x="188.609587" y="281.605566" style="fill: #1f77b4; stroke: #1f77b4"/>
     <use xlink:href="#maacc9d2b1a" x="191.888926" y="282.994689" style="fill: #1f77b4; stroke: #1f77b4"/>
     <use xlink:href="#maacc9d2b1a" x="195.168264" y="285.189829" style="fill: #1f77b4; stroke: #1f77b4"/>
     <use xlink:href="#maacc9d2b1a" x="198.447603" y="283.269472" style="fill: #1f77b4; stroke: #1f77b4"/>
     <use xlink:href="#maacc9d2b1a" x="201.726942" y="285.99567" style="fill: #1f77b4; stroke: #1f77b4"/>
     <use xlink:href="#maacc9d2b1a" x="205.006281" y="284.507368" style="fill: #1f77b4; stroke: #1f77b4"/>
     <use xlink:href="#maacc9d2b1a" x="208.28562" y="287.13336" style="fill: #1f77b4; stroke: #1f77b4"/>
     <use xlink:href="#maacc9d2b1a" x="211.564959" y="285.595511" style="fill: #1f77b4; stroke: #1f77b4"/>
     <use xlink:href="#maacc9d2b1a" x="214.844298" y="286.022866" style="fill: #1f77b4; stroke: #1f77b4"/>
     <use xlink:href="#maacc9d2b1a" x="218.123636" y="285.460874" style="fill: #1f77b4; stroke: #1f77b4"/>
     <use xlink:href="#maacc9d2b1a" x="221.402975" y="284.720521" style="fill: #1f77b4; stroke: #1f77b4"/>
     <use xlink:href="#maacc9d2b1a" x="224.682314" y="282.417457" style="fill: #1f77b4; stroke: #1f77b4"/>
     <use xlink:href="#maacc9d2b1a" x="227.961653" y="287.341719" style="fill: #1f77b4; stroke: #1f77b4"/>
     <use xlink:href="#maacc9d2b1a" x="231.240992" y="289.498862" style="fill: #1f77b4; stroke: #1f77b4"/>
     <use xlink:href="#maacc9d2b1a" x="234.520331" y="287.41235" style="fill: #1f77b4; stroke: #1f77b4"/>
     <use xlink:href="#maacc9d2b1a" x="237.799669" y="286.669484" style="fill: #1f77b4; stroke: #1f77b4"/>
     <use xlink:href="#maacc9d2b1a" x="241.079008" y="285.838798" style="fill: #1f77b4; stroke: #1f77b4"/>
     <use xlink:href="#maacc9d2b1a" x="244.358347" y="287.525024" style="fill: #1f77b4; stroke: #1f77b4"/>
     <use xlink:href="#maacc9d2b1a" x="247.637686" y="285.689871" style="fill: #1f77b4; stroke: #1f77b4"/>
     <use xlink:href="#maacc9d2b1a" x="250.917025" y="287.189984" style="fill: #1f77b4; stroke: #1f77b4"/>
     <use xlink:href="#maacc9d2b1a" x="254.196364" y="287.994532" style="fill: #1f77b4; stroke: #1f77b4"/>
     <use xlink:href="#maacc9d2b1a" x="257.475702" y="288.215737" style="fill: #1f77b4; stroke: #1f77b4"/>
     <use xlink:href="#maacc9d2b1a" x="260.755041" y="290.383881" style="fill: #1f77b4; stroke: #1f77b4"/>
     <use xlink:href="#maacc9d2b1a" x="264.03438" y="288.74957" style="fill: #1f77b4; stroke: #1f77b4"/>
     <use xlink:href="#maacc9d2b1a" x="267.313719" y="287.972707" style="fill: #1f77b4; stroke: #1f77b4"/>
     <use xlink:href="#maacc9d2b1a" x="270.593058" y="287.386903" style="fill: #1f77b4; stroke: #1f77b4"/>
     <use xlink:href="#maacc9d2b1a" x="273.872397" y="288.254503" style="fill: #1f77b4; stroke: #1f77b4"/>
     <use xlink:href="#maacc9d2b1a" x="277.151736" y="286.758737" style="fill: #1f77b4; stroke: #1f77b4"/>
     <use xlink:href="#maacc9d2b1a" x="280.431074" y="288.629034" style="fill: #1f77b4; stroke: #1f77b4"/>
     <use xlink:href="#maacc9d2b1a" x="283.710413" y="289.928135" style="fill: #1f77b4; stroke: #1f77b4"/>
     <use xlink:href="#maacc9d2b1a" x="286.989752" y="286.37829" style="fill: #1f77b4; stroke: #1f77b4"/>
     <use xlink:href="#maacc9d2b1a" x="290.269091" y="292.614663" style="fill: #1f77b4; stroke: #1f77b4"/>
     <use xlink:href="#maacc9d2b1a" x="293.54843" y="293.138365" style="fill: #1f77b4; stroke: #1f77b4"/>
     <use xlink:href="#maacc9d2b1a" x="296.827769" y="292.286152" style="fill: #1f77b4; stroke: #1f77b4"/>
     <use xlink:href="#maacc9d2b1a" x="300.107107" y="287.584088" style="fill: #1f77b4; stroke: #1f77b4"/>
     <use xlink:href="#maacc9d2b1a" x="303.386446" y="285.351924" style="fill: #1f77b4; stroke: #1f77b4"/>
     <use xlink:href="#maacc9d2b1a" x="306.665785" y="291.718241" style="fill: #1f77b4; stroke: #1f77b4"/>
     <use xlink:href="#maacc9d2b1a" x="309.945124" y="289.843761" style="fill: #1f77b4; stroke: #1f77b4"/>
     <use xlink:href="#maacc9d2b1a" x="313.224463" y="289.030162" style="fill: #1f77b4; stroke: #1f77b4"/>
     <use xlink:href="#maacc9d2b1a" x="316.503802" y="288.188259" style="fill: #1f77b4; stroke: #1f77b4"/>
     <use xlink:href="#maacc9d2b1a" x="319.78314" y="287.938067" style="fill: #1f77b4; stroke: #1f77b4"/>
     <use xlink:href="#maacc9d2b1a" x="323.062479" y="289.925427" style="fill: #1f77b4; stroke: #1f77b4"/>
     <use xlink:href="#maacc9d2b1a" x="326.341818" y="289.711825" style="fill: #1f77b4; stroke: #1f77b4"/>
     <use xlink:href="#maacc9d2b1a" x="329.621157" y="288.993807" style="fill: #1f77b4; stroke: #1f77b4"/>
     <use xlink:href="#maacc9d2b1a" x="332.900496" y="289.141507" style="fill: #1f77b4; stroke: #1f77b4"/>
     <use xlink:href="#maacc9d2b1a" x="336.179835" y="288.558656" style="fill: #1f77b4; stroke: #1f77b4"/>
     <use xlink:href="#maacc9d2b1a" x="339.459174" y="290.075659" style="fill: #1f77b4; stroke: #1f77b4"/>
     <use xlink:href="#maacc9d2b1a" x="342.738512" y="288.937755" style="fill: #1f77b4; stroke: #1f77b4"/>
     <use xlink:href="#maacc9d2b1a" x="346.017851" y="289.091951" style="fill: #1f77b4; stroke: #1f77b4"/>
     <use xlink:href="#maacc9d2b1a" x="349.29719" y="290.495037" style="fill: #1f77b4; stroke: #1f77b4"/>
     <use xlink:href="#maacc9d2b1a" x="352.576529" y="290.499125" style="fill: #1f77b4; stroke: #1f77b4"/>
     <use xlink:href="#maacc9d2b1a" x="355.855868" y="290.33996" style="fill: #1f77b4; stroke: #1f77b4"/>
     <use xlink:href="#maacc9d2b1a" x="359.135207" y="288.543178" style="fill: #1f77b4; stroke: #1f77b4"/>
     <use xlink:href="#maacc9d2b1a" x="362.414545" y="292.830469" style="fill: #1f77b4; stroke: #1f77b4"/>
     <use xlink:href="#maacc9d2b1a" x="365.693884" y="292.887319" style="fill: #1f77b4; stroke: #1f77b4"/>
     <use xlink:href="#maacc9d2b1a" x="368.973223" y="291.078093" style="fill: #1f77b4; stroke: #1f77b4"/>
     <use xlink:href="#maacc9d2b1a" x="372.252562" y="290.643297" style="fill: #1f77b4; stroke: #1f77b4"/>
     <use xlink:href="#maacc9d2b1a" x="375.531901" y="290.892725" style="fill: #1f77b4; stroke: #1f77b4"/>
     <use xlink:href="#maacc9d2b1a" x="378.81124" y="291.568746" style="fill: #1f77b4; stroke: #1f77b4"/>
     <use xlink:href="#maacc9d2b1a" x="382.090579" y="290.880006" style="fill: #1f77b4; stroke: #1f77b4"/>
     <use xlink:href="#maacc9d2b1a" x="385.369917" y="295.488" style="fill: #1f77b4; stroke: #1f77b4"/>
     <use xlink:href="#maacc9d2b1a" x="388.649256" y="295.245856" style="fill: #1f77b4; stroke: #1f77b4"/>
     <use xlink:href="#maacc9d2b1a" x="391.928595" y="292.976489" style="fill: #1f77b4; stroke: #1f77b4"/>
     <use xlink:href="#maacc9d2b1a" x="395.207934" y="294.844992" style="fill: #1f77b4; stroke: #1f77b4"/>
     <use xlink:href="#maacc9d2b1a" x="398.487273" y="293.133679" style="fill: #1f77b4; stroke: #1f77b4"/>
    </g>
   </g>
   <g id="patch_3">
    <path d="M 57.6 307.584 
L 57.6 41.472 
" style="fill: none; stroke: #000000; stroke-width: 0.8; stroke-linejoin: miter; stroke-linecap: square"/>
   </g>
   <g id="patch_4">
    <path d="M 414.72 307.584 
L 414.72 41.472 
" style="fill: none; stroke: #000000; stroke-width: 0.8; stroke-linejoin: miter; stroke-linecap: square"/>
   </g>
   <g id="patch_5">
    <path d="M 57.6 307.584 
L 414.72 307.584 
" style="fill: none; stroke: #000000; stroke-width: 0.8; stroke-linejoin: miter; stroke-linecap: square"/>
   </g>
   <g id="patch_6">
    <path d="M 57.6 41.472 
L 414.72 41.472 
" style="fill: none; stroke: #000000; stroke-width: 0.8; stroke-linejoin: miter; stroke-linecap: square"/>
   </g>
  </g>
 </g>
 <defs>
  <clipPath id="pe9844ca493">
   <rect x="57.6" y="41.472" width="357.12" height="266.112"/>
  </clipPath>
 </defs>
</svg>
